<?xml version="1.0" standalone="no"?>
<!DOCTYPE svg PUBLIC "-//W3C//DTD SVG 20010904//EN"
 "http://www.w3.org/TR/2001/REC-SVG-20010904/DTD/svg10.dtd">
<svg version="1.0" xmlns="http://www.w3.org/2000/svg"
 width="928.000000pt" height="1750.000000pt" viewBox="0 0 928.000000 1750.000000"
 preserveAspectRatio="xMidYMid meet">
<metadata>
Created by potrace 1.16, written by Peter Selinger 2001-2019
</metadata>
<g transform="translate(0.000000,1750.000000) scale(0.100000,-0.100000)"
fill="#000000" stroke="none">
<path d="M8061 17275 c-131 -30 -304 -138 -401 -250 -148 -171 -266 -457 -444
-1075 -358 -1245 -777 -3290 -1106 -5399 -162 -1040 -270 -1850 -510 -3816
-203 -1667 -243 -1972 -259 -1988 -12 -12 -68 141 -232 633 -553 1661 -974
3147 -1468 5180 -213 881 -344 1458 -511 2255 l-98 470 35 165 c274 1315 447
2020 700 2865 117 392 132 474 99 572 -51 155 -227 224 -380 149 -70 -35 -106
-80 -180 -231 -93 -188 -186 -453 -471 -1337 -42 -130 -85 -247 -95 -260 -11
-13 -19 -20 -20 -15 0 4 -7 53 -15 110 -9 56 -34 259 -55 450 -64 561 -86 664
-158 740 -52 55 -97 71 -202 72 -83 0 -102 -3 -145 -25 -55 -29 -106 -94 -127
-163 -16 -52 -15 -373 1 -607 49 -690 124 -1434 215 -2135 l34 -260 -129 -583
c-475 -2148 -784 -3798 -1118 -5972 -236 -1531 -515 -3715 -625 -4880 -52
-546 -59 -671 -60 -980 -1 -295 0 -307 22 -361 54 -135 219 -322 333 -378 87
-42 200 -57 319 -42 105 13 176 37 282 93 229 122 282 276 347 998 11 124 46
601 76 1060 148 2224 285 3724 526 5750 108 912 320 2446 382 2775 l13 70 22
-70 c30 -101 79 -324 172 -780 521 -2574 1187 -5210 1719 -6805 190 -569 338
-940 447 -1122 87 -144 219 -244 374 -284 100 -25 284 -16 368 19 140 58 300
207 364 338 118 242 214 727 603 3034 844 5014 1138 6454 1835 8998 54 199
155 569 225 822 345 1257 377 1445 285 1683 -34 88 -117 234 -168 292 -70 82
-223 164 -390 206 -124 32 -333 42 -431 19z"/>
</g>
</svg>
